REM DIRINDEX 1\2,1\3\7,1\3\8,1\4\9,1\4\10,1\4\11,1\5\12,1\5\13,1\5\14,1\6\15,1\6\16,1\6\17
REM DIRNAME "folder01","folder02","folder03","folder04","folder05","folder06","folder07","folder08","folder09","folder10","folder11","folder12","folder13","folder14","folder15","folder16","folder17"
TITLE ""
FILE "2Q_t_0835-0852.mp3" MP3
  TRACK 01 AUDIO
    TITLE "7:cjc174_3446"
    INDEX 01 00:00:00
  TRACK 02 AUDIO
    TITLE "0:"
    INDEX 01 00:01:08
  TRACK 03 AUDIO
    TITLE "8:cjc174_3447"
    INDEX 01 00:01:53
  TRACK 04 AUDIO
    TITLE "0:"
    INDEX 01 00:02:46
  TRACK 05 AUDIO
    TITLE "7:cjc174_3448"
    INDEX 01 00:03:15
  TRACK 06 AUDIO
    TITLE "0:"
    INDEX 01 00:04:45
  TRACK 07 AUDIO
    TITLE "8:cjc174_3449"
    INDEX 01 00:05:23
  TRACK 08 AUDIO
    TITLE "0:"
    INDEX 01 00:06:48
  TRACK 09 AUDIO
    TITLE "7:cjc174_3450"
    INDEX 01 00:07:18
  TRACK 10 AUDIO
    TITLE "0:"
    INDEX 01 00:08:22
  TRACK 11 AUDIO
    TITLE "8:cjc174_3451"
    INDEX 01 00:08:67
  TRACK 12 AUDIO
    TITLE "0:"
    INDEX 01 00:10:01
  TRACK 13 AUDIO
    TITLE "7:cjc174_3452"
    INDEX 01 00:10:44
  TRACK 14 AUDIO
    TITLE "0:"
    INDEX 01 00:12:04
  TRACK 15 AUDIO
    TITLE "8:cjc174_3453"
    INDEX 01 00:12:55
  TRACK 16 AUDIO
    TITLE "0:"
    INDEX 01 00:14:71
  TRACK 17 AUDIO
    TITLE "7:cjc174_3454"
    INDEX 01 00:15:39
  TRACK 18 AUDIO
    TITLE "0:"
    INDEX 01 00:16:74
  TRACK 19 AUDIO
    TITLE "8:cjc174_3455"
    INDEX 01 00:17:46
  TRACK 20 AUDIO
    TITLE "0:"
    INDEX 01 00:18:75
  TRACK 21 AUDIO
    TITLE "7:cjc174_3456"
    INDEX 01 00:19:43
  TRACK 22 AUDIO
    TITLE "0:"
    INDEX 01 00:20:33
  TRACK 23 AUDIO
    TITLE "8:cjc174_3457"
    INDEX 01 00:21:12
  TRACK 24 AUDIO
    TITLE "0:"
    INDEX 01 00:24:15
  TRACK 25 AUDIO
    TITLE "7:cjc174_3458"
    INDEX 01 00:24:60
  TRACK 26 AUDIO
    TITLE "0:"
    INDEX 01 00:25:59
  TRACK 27 AUDIO
    TITLE "8:cjc174_3459"
    INDEX 01 00:26:33
  TRACK 28 AUDIO
    TITLE "0:"
    INDEX 01 00:27:52
  TRACK 29 AUDIO
    TITLE "7:cjc174_3460"
    INDEX 01 00:28:22
  TRACK 30 AUDIO
    TITLE "0:"
    INDEX 01 00:29:22
  TRACK 31 AUDIO
    TITLE "8:cjc174_3461"
    INDEX 01 00:30:02
  TRACK 32 AUDIO
    TITLE "0:"
    INDEX 01 00:32:75
  TRACK 33 AUDIO
    TITLE "7:cjc174_3462"
    INDEX 01 00:33:45
  TRACK 34 AUDIO
    TITLE "0:"
    INDEX 01 00:34:48
  TRACK 35 AUDIO
    TITLE "8:cjc174_3463"
    INDEX 01 00:35:22
  TRACK 36 AUDIO
    TITLE "0:"
    INDEX 01 00:36:28
  TRACK 37 AUDIO
    TITLE "7:cjc174_3464"
    INDEX 01 00:36:71
  TRACK 38 AUDIO
    TITLE "0:"
    INDEX 01 00:38:23
  TRACK 39 AUDIO
    TITLE "8:cjc174_3465"
    INDEX 01 00:38:70
  TRACK 40 AUDIO
    TITLE "0:"
    INDEX 01 00:40:73
  TRACK 41 AUDIO
    TITLE "7:cjc174_3466"
    INDEX 01 00:41:45
  TRACK 42 AUDIO
    TITLE "0:"
    INDEX 01 00:42:52
  TRACK 43 AUDIO
    TITLE "8:cjc174_3467"
    INDEX 01 00:43:28
  TRACK 44 AUDIO
    TITLE "0:"
    INDEX 01 00:45:36
  TRACK 45 AUDIO
    TITLE "7:cjc174_3468"
    INDEX 01 00:46:06
  TRACK 46 AUDIO
    TITLE "0:"
    INDEX 01 00:47:06
  TRACK 47 AUDIO
    TITLE "8:cjc174_3469"
    INDEX 01 00:47:57
  TRACK 48 AUDIO
    TITLE "0:"
    INDEX 01 00:48:49
  TRACK 49 AUDIO
    TITLE "7:cjc174_3470"
    INDEX 01 00:49:19
  TRACK 50 AUDIO
    TITLE "0:"
    INDEX 01 00:50:42
  TRACK 51 AUDIO
    TITLE "8:cjc174_3471"
    INDEX 01 00:51:21
  TRACK 52 AUDIO
    TITLE "0:"
    INDEX 01 00:53:59
  TRACK 53 AUDIO
    TITLE "7:cjc174_3472"
    INDEX 01 00:54:28
  TRACK 54 AUDIO
    TITLE "0:"
    INDEX 01 00:55:54
  TRACK 55 AUDIO
    TITLE "8:cjc174_3473"
    INDEX 01 00:56:28
  TRACK 56 AUDIO
    TITLE "0:"
    INDEX 01 00:58:39
  TRACK 57 AUDIO
    TITLE "7:cjc174_3474"
    INDEX 01 00:59:09
  TRACK 58 AUDIO
    TITLE "0:"
    INDEX 01 01:00:26
  TRACK 59 AUDIO
    TITLE "8:cjc174_3475"
    INDEX 01 01:00:73
  TRACK 60 AUDIO
    TITLE "0:"
    INDEX 01 01:03:23
  TRACK 61 AUDIO
    TITLE "7:cjc174_3476"
    INDEX 01 01:03:68
  TRACK 62 AUDIO
    TITLE "0:"
    INDEX 01 01:04:75
  TRACK 63 AUDIO
    TITLE "8:cjc174_3477"
    INDEX 01 01:05:51
  TRACK 64 AUDIO
    TITLE "0:"
    INDEX 01 01:07:64
  TRACK 65 AUDIO
    TITLE "7:cjc174_3478"
    INDEX 01 01:08:34
  TRACK 66 AUDIO
    TITLE "0:"
    INDEX 01 01:09:60
  TRACK 67 AUDIO
    TITLE "8:cjc174_3479"
    INDEX 01 01:10:38
  TRACK 68 AUDIO
    TITLE "0:"
    INDEX 01 01:14:44
  TRACK 69 AUDIO
    TITLE "7:cjc174_3480"
    INDEX 01 01:15:14
  TRACK 70 AUDIO
    TITLE "0:"
    INDEX 01 01:16:19
  TRACK 71 AUDIO
    TITLE "8:cjc174_3481"
    INDEX 01 01:16:66
  TRACK 72 AUDIO
    TITLE "0:"
    INDEX 01 01:18:55
